<svg xmlns="http://www.w3.org/2000/svg" width="1440" height="593.8" viewBox="0 0 1440 593.8">
  <g id="Group_70" data-name="Group 70" transform="translate(0 -711)">
    <g id="Grids" transform="translate(1440 1304.799) rotate(180)">
      <g id="home-1" transform="translate(0 -0.001)">
        <path id="Mask" d="M0-3952.2H1440v-562.876q-279.21-47.983-666.554-21.515T0-4512.3Z" transform="translate(0 4546.001)" fill="#fc0" fill-rule="evenodd"/>
      </g>
    </g>
    <g id="pattern" transform="translate(-204.866 505.447)" opacity="0.08" style="isolation: isolate">
      <path id="Path_2" data-name="Path 2" d="M295.247,281.713c3.163-4.507-6.325-11.122-13.521-7.775S287.182,293.177,295.247,281.713Z" transform="translate(-59.007 -26.317)" fill="#f7be3b"/>
      <path id="Path_3" data-name="Path 3" d="M259.513,289.7c4.112,4.191,12.888-4.454,10.806-12.651S249.05,279.025,259.513,289.7Z" transform="translate(27.33 -34.04)" fill="#f7be3b"/>
      <path id="Path_4" data-name="Path 4" d="M254.1,290.841c5.851-1.318,10.542-8.223,8.75-13.758s-15.5-8.961-23.536-1.028S245.584,292.791,254.1,290.841Z" transform="translate(86.037 -27.301)" fill="#f7be3b"/>
      <path id="Path_5" data-name="Path 5" d="M226.191,289.354c2.636-.527,7.169-7.221.764-14.258s-15.023,1.212-12.783,7.907S220.5,290.487,226.191,289.354Z" transform="translate(347.386 -28.661)" fill="#10aa84"/>
      <path id="Path_6" data-name="Path 6" d="M206.181,283.985c4.217-3.848-3.9-12.677-11.913-10.938S195.454,293.763,206.181,283.985Z" transform="translate(482.671 -26.745)" fill="#e983a8"/>
      <path id="Path_7" data-name="Path 7" d="M171.747,288.849c4.27,2.846,10.226-6.141,6.958-12.783S160.862,281.549,171.747,288.849Z" transform="translate(629.122 -32.847)" fill="#e983a8"/>
      <path id="Path_8" data-name="Path 8" d="M149.836,287.479c1.687,1.792,8.7,1.977,10.938-6.062s-7.907-10.542-11.834-5.8S146.357,283.815,149.836,287.479Z" transform="translate(751.654 -29.527)" fill="#f7be3b"/>
      <path id="Path_9" data-name="Path 9" d="M141.193,283.759c1.318-2.477-1.054-10.2-10.542-9.7s-8.645,12.44-2,15.023S138.426,288.9,141.193,283.759Z" transform="translate(883.873 -33.24)" fill="#eb1c58"/>
      <path id="Path_10" data-name="Path 10" d="M111.053,298.874c3.558,1.977,14.759-1.265,14.285-15.1s-17.816-12.783-21.691-3.215S103.673,294.762,111.053,298.874Z" transform="translate(1005.143 -40.816)" fill="#e983a8"/>
      <path id="Path_11" data-name="Path 11" d="M91.013,291.86a9.462,9.462,0,0,0,6.352-11.333c-1.581-4.322-12.7-6.431-18.765.211S84.239,293.758,91.013,291.86Z" transform="translate(1159.297 -41.841)" fill="#f7be3b"/>
      <path id="Path_12" data-name="Path 12" d="M60.283,291.377C65,293.855,70.14,283.892,66,277.435S48.265,285.1,60.283,291.377Z" transform="translate(1297.966 -39.539)" fill="#f7be3b"/>
      <path id="Path_13" data-name="Path 13" d="M42.8,290.016a7.907,7.907,0,0,0,6.642-8.487C48.68,277.787,39.8,274.65,34,279.342S37.057,290.7,42.8,290.016Z" transform="translate(1508.316 -40.998)" fill="#10aa84"/>
      <path id="Path_14" data-name="Path 14" d="M20.1,290.248a9.383,9.383,0,0,0,12.2-4.243c1.66-4.27-5.271-13.178-14.1-12.255S13.91,287.27,20.1,290.248Z" transform="translate(1574.871 -33.324)" fill="#f7be3b"/>
      <path id="Path_15" data-name="Path 15" d="M274.885,271.975c6.3,1.318,9.014-11.913,2.082-18.106S258.834,268.733,274.885,271.975Z" transform="translate(-10.102 40.903)" fill="#10aa84"/>
      <path id="Path_16" data-name="Path 16" d="M255.374,265.557c2.477.791,9.014-2.636,6.958-11.175s-12.677-5.693-13.863.738S250.287,263.949,255.374,265.557Z" transform="translate(56.849 56.994)" fill="#eb1c58"/>
      <path id="Path_17" data-name="Path 17" d="M227.7,264.728c1.608,1.845,8.645,2.267,11.175-5.693s-7.538-10.885-11.676-6.246S224.357,261.012,227.7,264.728Z" transform="translate(285.876 52.814)" fill="#f7be3b"/>
      <path id="Path_18" data-name="Path 18" d="M216.627,263.119c1.792-1.9,1.529-9.33-7.116-11.175s-10.674,9.04-5.271,12.914S212.911,267.072,216.627,263.119Z" transform="translate(422.597 48.546)" fill="#10aa84"/>
      <path id="Path_19" data-name="Path 19" d="M183.354,272.685c5.456,5.983,17.948-5.535,15.444-16.92S169.465,257.5,183.354,272.685Z" transform="translate(547.708 42.011)" fill="#f7be3b"/>
      <path id="Path_20" data-name="Path 20" d="M172.235,270.948c5.825-.448,11.228-6.431,10.384-11.992s-13.652-10.806-22.508-4.349S163.775,271.607,172.235,270.948Z" transform="translate(672.308 44.908)" fill="#f7be3b"/>
      <path id="Path_21" data-name="Path 21" d="M136.782,264.957a9.673,9.673,0,0,0,11.807,6.141c4.375-1.766,6.194-13.178-.817-19.213S134.621,258.157,136.782,264.957Z" transform="translate(810.293 48)" fill="#f7be3b"/>
      <path id="Path_22" data-name="Path 22" d="M132,264.831c.843-5.719-3.769-12.282-9.356-12.651s-13.468,10.885-9.119,20.874S130.809,273.212,132,264.831Z" transform="translate(949.004 37.188)" fill="#f7be3b"/>
      <path id="Path_23" data-name="Path 23" d="M108.9,258.546c-.316-3.163-7.353-8.935-16.051-2.477s-.316,17.1,7.538,15.365S109.429,265.109,108.9,258.546Z" transform="translate(1087.153 40.284)" fill="#eb1c58"/>
      <path id="Path_24" data-name="Path 24" d="M88.057,255.1c1.739-5.271-9.488-8.961-15.524-3.558S83.656,268.67,88.057,255.1Z" transform="translate(1197.712 61.708)" fill="#f7be3b"/>
      <path id="Path_25" data-name="Path 25" d="M58.715,277.009c3.9.975,13.784-4.955,9.831-18.054s-20.268-7.7-21.559,2.425S50.624,275.059,58.715,277.009Z" transform="translate(1449.655 39.848)" fill="#045584"/>
      <path id="Path_26" data-name="Path 26" d="M38.1,256.972c-.29-2.425-5.851-6.747-12.44-1.608s0,13.178,6.141,11.755S38.79,262.059,38.1,256.972Z" transform="translate(1543.693 45.1)" fill="#e983a8"/>
      <path id="Path_27" data-name="Path 27" d="M10.131,266.082a9.013,9.013,0,0,0,11.676-4.111c1.555-4.111-5.087-12.624-13.6-11.649S4.149,263.262,10.131,266.082Z" transform="translate(1611.2 52.673)" fill="#eb1c58"/>
      <path id="Path_28" data-name="Path 28" d="M277.564,241.637c.9,5.983,13.415,4.059,16.6-4.006S275.3,226.509,277.564,241.637Z" transform="translate(-51.84 109.405)" fill="#eb1c58"/>
      <path id="Path_29" data-name="Path 29" d="M269.471,255.562c8.539-.606,7.2-18.449-3.874-23.931S247.754,257.091,269.471,255.562Z" transform="translate(26.095 99.901)" fill="#045584"/>
      <path id="Path_30" data-name="Path 30" d="M242.874,247.5c2.636,1.5,11.254-1.028,10.832-11.57s-13.652-9.7-16.551-2.372S237.208,244.389,242.874,247.5Z" transform="translate(97.971 113.888)" fill="#10aa84"/>
      <path id="Path_31" data-name="Path 31" d="M230.815,246.818c5.772-1.054,10.542-7.59,9.145-13.178s-14.812-9.409-23.009-2S222.513,248.4,230.815,246.818Z" transform="translate(327.98 97.983)" fill="#e983a8"/>
      <path id="Path_32" data-name="Path 32" d="M205.071,253.5c6.352-.975,11.781-7.907,10.384-14.048s-15.813-10.753-25.117-2.9S195.794,254.924,205.071,253.5Z" transform="translate(486.277 98.27)" fill="#10aa84"/>
      <path id="Path_33" data-name="Path 33" d="M173.2,242.437c3.8,4.744,13.731-3.268,12.414-11.913S163.531,230.366,173.2,242.437Z" transform="translate(607.104 101.59)" fill="#eb1c58"/>
      <path id="Path_34" data-name="Path 34" d="M161.969,244.535c2.056-2.214,1.713-10.832-8.3-12.914s-12.308,10.542-6.141,14.97S157.726,249.094,161.969,244.535Z" transform="translate(759.902 104.756)" fill="#10aa84"/>
      <path id="Path_35" data-name="Path 35" d="M137.913,244.751a9.435,9.435,0,0,0-3.558-12.414c-4.191-1.9-13.468,4.481-12.993,13.415S134.592,250.813,137.913,244.751Z" transform="translate(897.755 101.564)" fill="#e983a8"/>
      <path id="Path_36" data-name="Path 36" d="M122.411,244.574c2.425-5.271-.211-13.178-5.535-15.023s-16.235,6.773-14.838,17.764S118.853,252.376,122.411,244.574Z" transform="translate(1008.808 105.953)" fill="#eb1c58"/>
      <path id="Path_37" data-name="Path 37" d="M80.862,250.319c4.639,5.93,17.052-3.848,15.55-14.575S69.08,235.322,80.862,250.319Z" transform="translate(1156.51 102.221)" fill="#eb1c58"/>
      <path id="Path_38" data-name="Path 38" d="M59.383,246.934c1.66,2.451,10.015,3.98,14.179-5.271s-7.406-14.127-13.178-9.145S55.9,241.874,59.383,246.934Z" transform="translate(1285.13 107.078)" fill="#eb1c58"/>
      <path id="Path_39" data-name="Path 39" d="M53.4,245.37c5.271-5.271-6.088-16.288-16.472-13.336S40.141,259.022,53.4,245.37Z" transform="translate(1500.041 104.002)" fill="#eb1c58"/>
      <path id="Path_40" data-name="Path 40" d="M20.354,248.167c2.636.316,8.539-4.4,4.823-12.6s-13.863-3.242-13.81,3.453S14.9,247.561,20.354,248.167Z" transform="translate(1586.086 105.803)" fill="#f7be3b"/>
      <path id="Path_41" data-name="Path 41" d="M285.045,226.458c5.561-1.845,9.356-8.987,7.169-14.179s-15.813-7.2-22.956,1.265S276.98,229.094,285.045,226.458Z" transform="translate(-23.768 155.893)" fill="#eb1c58"/>
      <path id="Path_42" data-name="Path 42" d="M268.244,216.337c.211-3.716-6.932-11.676-18.159-5.772s-3.479,19.82,5.956,19.213S267.8,224.085,268.244,216.337Z" transform="translate(61.031 152.264)" fill="#e983a8"/>
      <path id="Path_43" data-name="Path 43" d="M241.623,215.585c.843-2.636-3.031-9.962-12.466-7.59s-6.194,14.1.949,15.365S239.936,221.278,241.623,215.585Z" transform="translate(287.229 159.153)" fill="#f7be3b"/>
      <path id="Path_44" data-name="Path 44" d="M205.751,231.158c2.846,2.135,12.888.659,14.1-11.333s-13.837-13.178-18.449-5.271S199.874,226.756,205.751,231.158Z" transform="translate(427.734 148.242)" fill="#eb1c58"/>
      <path id="Path_45" data-name="Path 45" d="M199.874,218.471c5.034-4.77-5.034-15.339-14.786-13.02S187.144,230.648,199.874,218.471Z" transform="translate(535.144 165.553)" fill="#f7be3b"/>
      <path id="Path_46" data-name="Path 46" d="M176.439,222.654c5.956-4.56-3.69-17.052-14.417-15.629S161.179,234.277,176.439,222.654Z" transform="translate(676.983 158.844)" fill="#045584"/>
      <path id="Path_47" data-name="Path 47" d="M134.694,221.426a7.67,7.67,0,0,0,10.147,2.636c3.057-2.135,2.451-11.254-3.98-14.627S131.848,216.5,134.694,221.426Z" transform="translate(831.289 155.407)" fill="#eb1c58"/>
      <path id="Path_48" data-name="Path 48" d="M127.344,228.257c6.009-.316,11.755-6.378,10.99-12.15s-13.863-11.491-23.167-4.981S118.593,228.758,127.344,228.257Z" transform="translate(942.067 153.943)" fill="#045584"/>
      <path id="Path_49" data-name="Path 49" d="M90.814,220.158c.659,7.617,16.63,6.141,21.269-3.822S89.022,200.813,90.814,220.158Z" transform="translate(1075.144 158.663)" fill="#eb1c58"/>
      <path id="Path_50" data-name="Path 50" d="M75.528,231.853c7.3,2.978,13.494-12.387,6.536-21.348S56.973,224.289,75.528,231.853Z" transform="translate(1219.81 150.341)" fill="#10aa84"/>
      <path id="Path_51" data-name="Path 51" d="M67.228,215.558c-.527-3.716-9.145-10.173-19.055-2.108s.474,20.215,9.673,17.764S68.308,223.28,67.228,215.558Z" transform="translate(1458.511 148.49)" fill="#10aa84"/>
      <path id="Path_52" data-name="Path 52" d="M27.4,225.028c1.291,3.848,11.676,9.04,20.637-1.423s-4.4-21.374-13.7-16.973S24.763,217.042,27.4,225.028Z" transform="translate(1523.009 158.278)" fill="#eb1c58"/>
      <path id="Path_53" data-name="Path 53" d="M4.506,222.108c1.291,2.636,9.409,5.587,15.075-2.9s-5.271-15.365-11.623-11.28S1.844,216.467,4.506,222.108Z" transform="translate(1614.031 159.917)" fill="#10aa84"/>
      <path id="Path_54" data-name="Path 54" d="M299.853,191.769c.448-3.11-5.034-10.305-14.917-6.088s-4.243,16.472,3.743,16.578S299.01,198.279,299.853,191.769Z" transform="translate(-63.218 225.421)" fill="#10aa84"/>
      <path id="Path_55" data-name="Path 55" d="M270.9,207.284c6.273,0,12.677-5.772,12.308-11.834s-13.573-12.941-23.72-6.879S261.755,207.152,270.9,207.284Z" transform="translate(16.627 217.45)" fill="#eb1c58"/>
      <path id="Path_56" data-name="Path 56" d="M241.77,198.641a7.907,7.907,0,0,0,9.857-4.612c1.028-3.716-5.508-10.542-12.888-9.04S236.262,196.664,241.77,198.641Z" transform="translate(102.66 227.252)" fill="#eb1c58"/>
      <path id="Path_57" data-name="Path 57" d="M217.7,204.169c5.456,4.639,15.128-6.826,11.676-16.525S203.863,192.388,217.7,204.169Z" transform="translate(350.284 222.839)" fill="#eb1c58"/>
      <path id="Path_58" data-name="Path 58" d="M207.134,210.222c3.822-1.028,9.435-10.885-.29-20.215s-21.085,3.163-17.316,12.466S199.2,212.357,207.134,210.222Z" transform="translate(485.54 213.177)" fill="#f7be3b"/>
      <path id="Path_59" data-name="Path 59" d="M181.4,213.249c4.085,0,12.493-8.144,5.508-20.215s-21.9-2.9-20.795,7.459S172.885,213.09,181.4,213.249Z" transform="translate(621.663 210.306)" fill="#f7be3b"/>
      <path id="Path_60" data-name="Path 60" d="M155.89,207.533c3.321.843,11.7-4.217,8.355-15.339s-17.237-6.563-18.449,2.029S149.011,205.767,155.89,207.533Z" transform="translate(750.244 218.442)" fill="#eb1c58"/>
      <path id="Path_61" data-name="Path 61" d="M130.581,202.607c5.561,1.4,8.407-10.279,2.451-16S116.454,199.1,130.581,202.607Z" transform="translate(891.138 222.691)" fill="#045584"/>
      <path id="Path_62" data-name="Path 62" d="M125.916,191.711c-.527-3.927-9.541-10.779-20.03-2.372s.343,21.269,10.042,18.765S127,199.829,125.916,191.711Z" transform="translate(1006.47 218.369)" fill="#10aa84"/>
      <path id="Path_63" data-name="Path 63" d="M95,200.168c2.636-1.212,5.271-8.882-2.636-14.311s-14.575,4.77-10.78,10.911S89.624,202.645,95,200.168Z" transform="translate(1142.389 225.944)" fill="#f7be3b"/>
      <path id="Path_64" data-name="Path 64" d="M66.408,204.922c6.563,4.507,16-9.277,11.069-19.635S49.751,193.431,66.408,204.922Z" transform="translate(1260.776 227.012)" fill="#e983a8"/>
      <path id="Path_65" data-name="Path 65" d="M57.967,188.22c-.922-3.426-9.752-8.487-18.106.237s2.794,18.923,11.122,15.524S59.891,195.362,57.967,188.22Z" transform="translate(1486.273 225.083)" fill="#045584"/>
      <path id="Path_66" data-name="Path 66" d="M18.26,199.808a8.7,8.7,0,0,0,11.834-1.555c2.319-3.584-2.267-12.941-10.542-13.731S13.147,195.934,18.26,199.808Z" transform="translate(1575.134 225.882)" fill="#eb1c58"/>
      <path id="Path_67" data-name="Path 67" d="M289.263,183.208c3.4-1.977,6.194-12.835-5.508-19.213s-19.319,8.487-13.178,16.393S282.252,187.319,289.263,183.208Z" transform="translate(-25.851 284.542)" fill="#f7be3b"/>
      <path id="Path_68" data-name="Path 68" d="M268.751,172.294c-.553-6.325-7.063-12.15-13.178-11.175s-11.649,14.891-4.56,24.484S269.515,181.466,268.751,172.294Z" transform="translate(52.169 285.384)" fill="#10aa84"/>
      <path id="Path_69" data-name="Path 69" d="M245.037,174.306c1.529-5.271-2-12.255-7.3-13.362s-14.338,8.618-11.491,18.792S242.771,182.134,245.037,174.306Z" transform="translate(270.793 289.304)" fill="#f7be3b"/>
      <path id="Path_70" data-name="Path 70" d="M210.3,179.148c2.636.87,9.646-2.636,7.643-11.755s-13.389-6.325-14.786.5S204.9,177.329,210.3,179.148Z" transform="translate(414.498 292.244)" fill="#eb1c58"/>
      <path id="Path_71" data-name="Path 71" d="M180.611,185.89c4.217,3.8,12.071,3.611,15.418-.712s-1.5-16.868-11.992-18.792S174.5,180.356,180.611,185.89Z" transform="translate(565.605 274.781)" fill="#eb1c58"/>
      <path id="Path_72" data-name="Path 72" d="M168.7,167.9c-1-2.293-7.617-4.9-12.545,1.977s3.848,12.835,9.277,9.673S170.725,172.649,168.7,167.9Z" transform="translate(701.94 283.259)" fill="#10aa84"/>
      <path id="Path_73" data-name="Path 73" d="M138.374,185.225c4.586,3.189,12.229,2.029,14.97-2.636s-3.584-16.314-14.127-16.868S131.653,180.587,138.374,185.225Z" transform="translate(826.556 277.173)" fill="#e983a8"/>
      <path id="Path_74" data-name="Path 74" d="M126.817,176.217c2.161-1.344,3.822-8.46-3.927-12.44s-12.44,5.877-8.381,10.911S122.31,179.011,126.817,176.217Z" transform="translate(950.222 290.381)" fill="#10aa84"/>
      <path id="Path_75" data-name="Path 75" d="M95.845,184.981c2.636,2.4,12.862,1.792,15.128-10.147s-12.783-14.39-18.054-6.958S90.284,179.947,95.845,184.981Z" transform="translate(1080.092 282.199)" fill="#f7be3b"/>
      <path id="Path_76" data-name="Path 76" d="M94.671,166.548c-.817-3.874-10.305-10.068-20.188-.949s1.871,21.243,11.359,18.027S96.411,174.586,94.671,166.548Z" transform="translate(1191.474 289.647)" fill="#eb1c58"/>
      <path id="Path_77" data-name="Path 77" d="M65.724,177.955c3.822-3.743,4.138-11.122.237-14.522s-15.945.422-18.449,10.173S60.162,183.411,65.724,177.955Z" transform="translate(1449.183 289.001)" fill="#e983a8"/>
      <path id="Path_78" data-name="Path 78" d="M39.848,170.931c0-2.794-5.271-8.671-13.626-4.111s-2.372,14.812,4.691,14.258S39.611,176.65,39.848,170.931Z" transform="translate(1544.19 283.332)" fill="#e983a8"/>
      <path id="Path_79" data-name="Path 79" d="M17.661,172.269C18,169.423,12.943,163.018,4.087,167S.5,181.942,7.751,181.915,16.975,178.146,17.661,172.269Z" transform="translate(1626.204 281.419)" fill="#045584"/>
      <path id="Path_80" data-name="Path 80" d="M295.889,161.083c4.059-4.217,4.164-12.282-.185-15.813s-17.421.949-19.793,11.7S289.959,167.2,295.889,161.083Z" transform="translate(-51.769 340.331)" fill="#eb1c58"/>
      <path id="Path_81" data-name="Path 81" d="M277.548,150.343c.422-3.453-5.719-11.307-16.525-6.536s-4.48,18.212,4.349,18.238S276.626,157.591,277.548,150.343Z" transform="translate(23.263 346.897)" fill="#eb1c58"/>
      <path id="Path_82" data-name="Path 82" d="M247.892,163.024c7.7-.949,5.64-17.1-4.639-21.454S228.336,165.448,247.892,163.024Z" transform="translate(103.47 348.387)" fill="#10aa84"/>
      <path id="Path_83" data-name="Path 83" d="M223.38,162.14c3.242.316,10.542-5.614,5.719-15.682s-17.184-3.769-17.026,4.507S216.607,161.455,223.38,162.14Z" transform="translate(354.081 348.935)" fill="#045584"/>
      <path id="Path_84" data-name="Path 84" d="M192.041,153.488c2.636,5.034,13.178-.58,13.494-8.75S185.32,140.706,192.041,153.488Z" transform="translate(487.908 356.325)" fill="#f7be3b"/>
      <path id="Path_85" data-name="Path 85" d="M175.044,161.025c4.928,1.66,11.465-1.344,12.7-6.22s-7.432-13.652-16.947-11.438S167.849,158.6,175.044,161.025Z" transform="translate(624.278 345.927)" fill="#eb1c58"/>
      <path id="Path_86" data-name="Path 86" d="M169.489,143.735c-.633-3.426-8.8-9.04-17.658-1.265s1.186,18.634,9.593,16.024S170.754,150.8,169.489,143.735Z" transform="translate(730.427 357.364)" fill="#10aa84"/>
      <path id="Path_87" data-name="Path 87" d="M127.9,161.927c2.346,2.636,12.545,3.321,16.235-8.249s-10.938-15.813-16.947-9.066S123,156.313,127.9,161.927Z" transform="translate(880.341 347.505)" fill="#045584"/>
      <path id="Path_88" data-name="Path 88" d="M103.25,154.857c2.636,6.115,15.392.633,16.578-8.856S96.687,139.307,103.25,154.857Z" transform="translate(1012.394 354.546)" fill="#10aa84"/>
      <path id="Path_89" data-name="Path 89" d="M102.266,159.723c3.242-2.214,5.271-13.178-6.879-18.739s-18.633,9.857-12.045,17.263S95.571,164.336,102.266,159.723Z" transform="translate(1132.385 350.811)" fill="#f7be3b"/>
      <path id="Path_90" data-name="Path 90" d="M78.739,141.759c-1.37-3.084-10.358-6.536-16.947,2.794s5.271,17.316,12.677,12.967S81.559,148.137,78.739,141.759Z" transform="translate(1261.296 357.603)" fill="#10aa84"/>
      <path id="Path_91" data-name="Path 91" d="M48.722,158.952c2.952-.553,7.907-7.643,1.081-15.313s-16.156,1.054-13.889,8.3S42.581,160.059,48.722,158.952Z" transform="translate(1495.44 352.627)" fill="#eb1c58"/>
      <path id="Path_92" data-name="Path 92" d="M21.465,163.1c3.11.422,10.252-5.034,6.062-14.838s-16.367-4.217-16.472,3.716S15.034,162.209,21.465,163.1Z" transform="translate(1584.474 344.456)" fill="#eb1c58"/>
      <path id="Path_93" data-name="Path 93" d="M299.965,129.39a7.907,7.907,0,0,0-7.907-7.38c-3.822.448-7.749,9.04-3.558,15.26S300.2,135.215,299.965,129.39Z" transform="translate(-81.832 408.237)" fill="#10aa84"/>
      <path id="Path_94" data-name="Path 94" d="M268.8,135.207c1.16,3.057,9.725,6.905,16.63-1.845s-4.27-17.131-11.623-13.178S266.4,128.829,268.8,135.207Z" transform="translate(-18.565 414.667)" fill="#f7be3b"/>
      <path id="Path_95" data-name="Path 95" d="M260.976,135.061a10.068,10.068,0,0,0-3.189-13.441c-4.375-2.214-14.6,4.138-14.548,13.679S257.1,141.386,260.976,135.061Z" transform="translate(70.355 408.411)" fill="#eb1c58"/>
      <path id="Path_96" data-name="Path 96" d="M240.984,127.251c1.45-2.161,0-9.462-8.882-9.857s-9.066,10.7-3.163,13.652S238.006,131.757,240.984,127.251Z" transform="translate(280.888 423.975)" fill="#10aa84"/>
      <path id="Path_97" data-name="Path 97" d="M214.629,130.513a7.907,7.907,0,0,0,4.981-9.673c-1.476-3.584-10.885-5.034-15.813.738S209.068,132.331,214.629,130.513Z" transform="translate(413.298 424.662)" fill="#f7be3b"/>
      <path id="Path_98" data-name="Path 98" d="M200.132,134.908c2.082-3.084,0-13.494-12.651-14.1s-12.941,15.234-4.533,19.477S195.862,141.312,200.132,134.908Z" transform="translate(554.651 408.317)" fill="#e983a8"/>
      <path id="Path_99" data-name="Path 99" d="M167.763,141.462c5.93.764,12.624-4.085,12.941-9.857s-11.438-13.731-21.691-9.093S159.119,140.355,167.763,141.462Z" transform="translate(685.783 408.234)" fill="#045584"/>
      <path id="Path_100" data-name="Path 100" d="M155.991,135.323c4.9-3.268,6.747-11.2,3.242-15.682s-17.342-2.82-21.981,7.274S148.849,140.067,155.991,135.323Z" transform="translate(797.61 419.606)" fill="#eb1c58"/>
      <path id="Path_101" data-name="Path 101" d="M118.992,136.549c2.5.791,9.119-2.636,7.063-11.307s-12.835-5.772-14.048.738S113.827,134.888,118.992,136.549Z" transform="translate(959.036 415.17)" fill="#f7be3b"/>
      <path id="Path_102" data-name="Path 102" d="M98.644,132.962c2.267,1.555,9.989.158,10.542-9.145s-11.069-9.778-14.311-3.637S93.979,129.694,98.644,132.962Z" transform="translate(1067.146 425.58)" fill="#eb1c58"/>
      <path id="Path_103" data-name="Path 103" d="M78.127,141.672c3.215,0,9.462-6.826,3.532-15.945s-17.21-1.45-15.813,6.589S71.512,141.909,78.127,141.672Z" transform="translate(1229.056 407.137)" fill="#f7be3b"/>
      <path id="Path_104" data-name="Path 104" d="M63.417,142.324c8.355-2.636,2.925-20.057-9.33-22.9S42.175,148.807,63.417,142.324Z" transform="translate(1453.94 410.6)" fill="#10aa84"/>
      <path id="Path_105" data-name="Path 105" d="M26.044,134.606c3.927,3.479,11.307-4.823,8.671-11.965S16.029,125.8,26.044,134.606Z" transform="translate(1547.082 415.426)" fill="#045584"/>
      <path id="Path_106" data-name="Path 106" d="M1.534,127.47c-1.5,6.325,11.834,9.435,18.265,2.636S5.355,111.446,1.534,127.47Z" transform="translate(1617.662 418.344)" fill="#f7be3b"/>
      <path id="Path_107" data-name="Path 107" d="M297.652,107.431c1.265-2.82-1.977-11.1-12.44-9.778s-8.487,14.39-.949,16.683S295.042,113.334,297.652,107.431Z" transform="translate(-56.8 479.831)" fill="#10aa84"/>
      <path id="Path_108" data-name="Path 108" d="M272.11,112.749c5.271-4.138-3.347-15.418-13.178-14.127S258.432,123.265,272.11,112.749Z" transform="translate(28.358 477.439)" fill="#eb1c58"/>
      <path id="Path_109" data-name="Path 109" d="M243.922,117.819c5.561,2.794,13.81.316,16.13-5.271S253.541,95.1,241.839,96.1,235.778,113.813,243.922,117.819Z" transform="translate(93.524 479.243)" fill="#f7be3b"/>
      <path id="Path_110" data-name="Path 110" d="M213.25,115.675c4.48,3.558,11.913-5.877,8.882-13.547S201.759,106.662,213.25,115.675Z" transform="translate(378.78 474.15)" fill="#e983a8"/>
      <path id="Path_111" data-name="Path 111" d="M204.827,108.521c1.924-1.634,2.636-8.8-5.561-11.57s-11.307,7.485-6.642,11.807S200.848,111.868,204.827,108.521Z" transform="translate(488.115 485.113)" fill="#eb1c58"/>
      <path id="Path_112" data-name="Path 112" d="M166.135,111.388c1.608,6.088,14.364,2.636,16.736-6.088S162.023,95.917,166.135,111.388Z" transform="translate(633.44 477.069)" fill="#045584"/>
      <path id="Path_113" data-name="Path 113" d="M159.406,113.135c5.9-2.477.659-14.865-8.513-16.024S144.383,119.461,159.406,113.135Z" transform="translate(754.795 481.498)" fill="#10aa84"/>
      <path id="Path_114" data-name="Path 114" d="M132.94,112.527a8.566,8.566,0,0,0,8.513-8.118c-.237-4.164-9.277-8.961-16.314-4.823S126.615,112.316,132.94,112.527Z" transform="translate(889.041 481.157)" fill="#f7be3b"/>
      <path id="Path_115" data-name="Path 115" d="M116.491,106.656c2.978-4.849-7.169-11.069-14.364-7.2S108.9,118.911,116.491,106.656Z" transform="translate(1025.435 481.795)" fill="#eb1c58"/>
      <path id="Path_116" data-name="Path 116" d="M91.762,122.792c3.927.9,13.7-5.271,9.435-18.449s-20.5-7.274-21.559,2.925S83.592,120.92,91.762,122.792Z" transform="translate(1141.291 474.3)" fill="#eb1c58"/>
      <path id="Path_117" data-name="Path 117" d="M58.172,113.819c1.634,2.029,9.119,2.82,12.176-5.535s-7.511-11.965-12.15-7.2S54.825,109.576,58.172,113.819Z" transform="translate(1295.261 476.823)" fill="#f7be3b"/>
      <path id="Path_118" data-name="Path 118" d="M44.288,123.016c3.663,1.107,13.178-4.111,10.068-16.736s-18.9-8.17-20.557,1.4S36.671,120.723,44.288,123.016Z" transform="translate(1499.267 470.469)" fill="#eb1c58"/>
      <path id="Path_119" data-name="Path 119" d="M26.01,109.733a7.907,7.907,0,0,0,1.634-10.885c-2.636-2.952-12.018-1.291-14.838,5.8S21.266,113.264,26.01,109.733Z" transform="translate(1580.719 483.133)" fill="#eb1c58"/>
      <path id="Path_120" data-name="Path 120" d="M288.8,80.954c.87-2.846-3.215-10.331-13.02-7.907s-6.352,14.733,1.081,16S287.033,86.884,288.8,80.954Z" transform="translate(-26.099 553.561)" fill="#e983a8"/>
      <path id="Path_121" data-name="Path 121" d="M257.741,79.243a7.2,7.2,0,0,0-8.487-4.981c-3.294,1.133-5.113,9.541-.158,14.258S259.059,84.329,257.741,79.243Z" transform="translate(67.343 550.033)" fill="#f7be3b"/>
      <path id="Path_122" data-name="Path 122" d="M249.55,84.291c4.191-7.063-10.542-15.813-21.085-9.989S238.9,102.16,249.55,84.291Z" transform="translate(262.951 552.185)" fill="#10aa84"/>
      <path id="Path_123" data-name="Path 123" d="M213.56,88.386c2.636,0,7.907-5.087,3.558-12.73s-13.81-1.924-13.178,4.586S208.184,88.386,213.56,88.386Z" transform="translate(409.01 555.558)" fill="#f7be3b"/>
      <path id="Path_124" data-name="Path 124" d="M181.448,94.64c4.849,5.271,15.813-5.034,13.494-15.049S169.087,81.33,181.448,94.64Z" transform="translate(560.39 540.75)" fill="#e983a8"/>
      <path id="Path_125" data-name="Path 125" d="M172.489,82.438c.817-2.372-2.346-8.8-10.674-7.037s-5.851,12.15.369,13.468S170.8,87.34,172.489,82.438Z" transform="translate(690.004 548.628)" fill="#10aa84"/>
      <path id="Path_126" data-name="Path 126" d="M136.957,90.515c1.5,2.477,9.594,4.4,14.127-4.349s-6.536-14.153-12.282-9.593S133.821,85.376,136.957,90.515Z" transform="translate(818.949 545.809)" fill="#10aa84"/>
      <path id="Path_127" data-name="Path 127" d="M126.08,90.965c5.983-2.293,1.107-14.812-7.907-16.261S110.9,96.869,126.08,90.965Z" transform="translate(951.596 547.004)" fill="#10aa84"/>
      <path id="Path_128" data-name="Path 128" d="M105.8,84.265a7.7,7.7,0,0,0,1.186-10.542c-2.636-2.636-11.6-.791-14.021,6.115S101.4,87.718,105.8,84.265Z" transform="translate(1071.527 556.451)" fill="#f7be3b"/>
      <path id="Path_129" data-name="Path 129" d="M93.569,85.423c1.581-3.4-2.161-13.468-14.812-12.1s-10.542,17.21-1.5,20.136S90.433,92.486,93.569,85.423Z" transform="translate(1197.391 547.521)" fill="#045584"/>
      <path id="Path_130" data-name="Path 130" d="M67.359,79.179c.738-2.636-3.215-9.673-12.414-7.142s-5.719,13.995,1.318,15.049S65.831,84.793,67.359,79.179Z" transform="translate(1444.806 557.595)" fill="#10aa84"/>
      <path id="Path_131" data-name="Path 131" d="M27.333,98.006c2.636,2.4,12.756,1.845,15.075-9.962S29.864,73.706,24.7,81.033,21.9,93.077,27.333,98.006Z" transform="translate(1542.235 535.74)" fill="#e983a8"/>
      <path id="Path_132" data-name="Path 132" d="M3.045,96.427c2.135,2.636,11.6,3.374,15.286-7.274S8.606,74.21,2.808,80.324-1.356,91.13,3.045,96.427Z" transform="translate(1625.902 535.52)" fill="#045584"/>
      <path id="Path_133" data-name="Path 133" d="M280.472,65.159c2.636,5.271,13.7,0,14.364-8.566S273.962,51.638,280.472,65.159Z" transform="translate(-57.068 598.171)" fill="#10aa84"/>
      <path id="Path_134" data-name="Path 134" d="M264.876,81.24c3.848,1.4,14.469-3.611,11.755-17.289s-19.74-9.831-22.06.29S256.891,78.341,264.876,81.24Z" transform="translate(27.316 595.524)" fill="#f7be3b"/>
      <path id="Path_135" data-name="Path 135" d="M237.74,55.635c-2.346,5.614,9.435,10.542,16.393,5.271S243.723,41.377,237.74,55.635Z" transform="translate(92.22 607.969)" fill="#10aa84"/>
      <path id="Path_136" data-name="Path 136" d="M212.4,73.4c1.371,3.716,11.7,8.407,20.109-2.108s-5.06-20.716-13.969-16.1S209.558,65.678,212.4,73.4Z" transform="translate(352.385 601.156)" fill="#e983a8"/>
      <path id="Path_137" data-name="Path 137" d="M195.251,70.5a9.172,9.172,0,0,0,11.781-4.4c1.529-4.191-5.271-12.73-14.021-11.6S189.11,67.731,195.251,70.5Z" transform="translate(495.886 588.69)" fill="#eb1c58"/>
      <path id="Path_138" data-name="Path 138" d="M167.73,72.707c2.846,4.8,10.279,6.905,14.68,3.8s3.479-16.288-5.851-21.085S163.565,65.723,167.73,72.707Z" transform="translate(628.845 600.049)" fill="#045584"/>
      <path id="Path_139" data-name="Path 139" d="M153.4,69.785c5.666,4.085,14.179-7.907,10.042-17.026S139.085,59.427,153.4,69.785Z" transform="translate(738.544 599.424)" fill="#eb1c58"/>
      <path id="Path_140" data-name="Path 140" d="M137.727,69.226c6.8-.369,5.956-14.6-2.767-19.029S120.49,70.175,137.727,69.226Z" transform="translate(869.211 601.597)" fill="#045584"/>
      <path id="Path_141" data-name="Path 141" d="M125.659,66.64c2.636-5.614,0-13.863-5.456-16.077s-17.395,6.747-16.235,18.449S121.652,74.811,125.659,66.64Z" transform="translate(995.14 594.114)" fill="#10aa84"/>
      <path id="Path_142" data-name="Path 142" d="M93.81,76.476c8.407-.764,6.8-18.449-4.217-23.509S72.462,78.347,93.81,76.476Z" transform="translate(1144.916 605.512)" fill="#f7be3b"/>
      <path id="Path_143" data-name="Path 143" d="M79.131,63.627c1.924-2.636.448-11.939-10.542-12.941s-12.045,12.967-4.77,17.026S75.046,69.109,79.131,63.627Z" transform="translate(1265.485 598.924)" fill="#eb1c58"/>
      <path id="Path_144" data-name="Path 144" d="M44.751,76.313c7.722,4.032,16.077-12.2,9.33-22.771S25.142,66.14,44.751,76.313Z" transform="translate(1488.763 591.368)" fill="#045584"/>
      <path id="Path_145" data-name="Path 145" d="M24.921,70.835c6.352-1.529,3.031-14.865-5.983-17.5S8.765,74.789,24.921,70.835Z" transform="translate(1581.519 591.569)" fill="#10aa84"/>
      <path id="Path_146" data-name="Path 146" d="M283.477,42.269C288.116,38.421,280,28.7,271.433,30.145S271.67,52.047,283.477,42.269Z" transform="translate(-17.429 662.752)" fill="#f7be3b"/>
      <path id="Path_147" data-name="Path 147" d="M259.462,37.345c-.606-2.636-7.459-7.09-14.417-.474s1.529,15.155,8.3,12.783S260.727,43.09,259.462,37.345Z" transform="translate(74.768 648.595)" fill="#10aa84"/>
      <path id="Path_148" data-name="Path 148" d="M223.357,50.575c1.608,3,10.911,5.772,16.815-4.138s-6.694-17-13.731-12.045S220.036,44.355,223.357,50.575Z" transform="translate(297.387 646.987)" fill="#eb1c58"/>
      <path id="Path_149" data-name="Path 149" d="M222.117,38.732c-.5-3.716-9.04-10.279-19.082-2.319s.264,20.268,9.514,17.9S222.987,46.48,222.117,38.732Z" transform="translate(424.923 646.074)" fill="#eb1c58"/>
      <path id="Path_150" data-name="Path 150" d="M192.04,58.6c8.882-1.37,5.956-20-6.088-24.7S169.559,62.051,192.04,58.6Z" transform="translate(565.503 639.728)" fill="#f7be3b"/>
      <path id="Path_151" data-name="Path 151" d="M163.382,49.95c2.267,3.4,13.679,5.666,19.609-6.852s-9.936-19.53-17.764-12.809S158.717,42.913,163.382,49.95Z" transform="translate(658.513 661.132)" fill="#10aa84"/>
      <path id="Path_152" data-name="Path 152" d="M139.4,55.246c5.271,3.584,14.074,2.135,17.131-3.242s-4.322-18.66-16.393-19.161S131.759,50,139.4,55.246Z" transform="translate(821.77 642.975)" fill="#e983a8"/>
      <path id="Path_153" data-name="Path 153" d="M129.434,40.711a8.513,8.513,0,0,0-1.344-11.57c-3.453-2.293-12.651,2.029-13.547,10.042S125.586,45.64,129.434,40.711Z" transform="translate(940.026 666.734)" fill="#f7be3b"/>
      <path id="Path_154" data-name="Path 154" d="M96.358,45.508c2.161,1.054,8.7-1.186,7.907-9.356S93.38,29.089,91.351,34.861,91.878,43.268,96.358,45.508Z" transform="translate(1086.178 661.173)" fill="#045584"/>
      <path id="Path_155" data-name="Path 155" d="M85.279,56.4c3.953-.949,10.042-10.911.316-20.795S63.8,38.237,67.41,47.883,77,58.373,85.279,56.4Z" transform="translate(1216.024 645.146)" fill="#045584"/>
      <path id="Path_156" data-name="Path 156" d="M49.616,41.5c2.952,4.27,11.86-1.977,11.254-9.409S42.105,30.694,49.616,41.5Z" transform="translate(1455.538 667.922)" fill="#f7be3b"/>
      <path id="Path_157" data-name="Path 157" d="M38.3,47.55c2.636-1.37,5.271-9.409-3.374-14.68S20.06,38.484,24.382,44.651,32.869,50.344,38.3,47.55Z" transform="translate(1541.022 654.255)" fill="#10aa84"/>
      <path id="Path_158" data-name="Path 158" d="M8.981,53.848c2.978,2.846,14.786,2.636,17.9-11.122S12.7,25.621,6.451,34,2.787,47.945,8.981,53.848Z" transform="translate(1607.632 653.808)" fill="#eb1c58"/>
      <path id="Path_159" data-name="Path 159" d="M281.322,30.994c2.188,3.294,13.31,5.429,18.976-6.747s-9.752-18.9-17.316-12.334S276.71,24.194,281.322,30.994Z" transform="translate(-59.368 728.53)" fill="#045584"/>
      <path id="Path_160" data-name="Path 160" d="M276.065,30.14c3.294-2.082,5.719-12.967-6.088-18.923s-18.923,9.014-12.7,16.683S269.292,34.436,276.065,30.14Z" transform="translate(22.98 727.25)" fill="#e983a8"/>
      <path id="Path_161" data-name="Path 161" d="M240.213,27.734c4.612,2.319,11.412.29,13.178-4.3s-5.271-14.417-15-13.573S233.492,24.361,240.213,27.734Z" transform="translate(170.434 732.159)" fill="#045584"/>
      <path id="Path_162" data-name="Path 162" d="M218.52,27.6c5.772.448,6.642-11.7-.264-16.42S203.787,26.522,218.52,27.6Z" transform="translate(375.285 731.527)" fill="#e983a8"/>
      <path id="Path_163" data-name="Path 163" d="M203.659,22.443c2.161-1.5,3.374-8.908-4.77-12.493s-12.414,6.773-7.907,11.7S199.231,25.658,203.659,22.443Z" transform="translate(495.077 737.345)" fill="#f7be3b"/>
      <path id="Path_164" data-name="Path 164" d="M180.083,17.244a9.462,9.462,0,0,0-11.755-5.456c-4.164,1.924-5.429,13.178,1.66,18.66S182.508,23.753,180.083,17.244Z" transform="translate(640.185 725.097)" fill="#eb1c58"/>
      <path id="Path_165" data-name="Path 165" d="M149.591,29.311c2.267,2.9,12.73,4.217,17.263-7.432s-10.226-17-16.868-10.542S144.926,23.249,149.591,29.311Z" transform="translate(746.594 732.849)" fill="#eb1c58"/>
      <path id="Path_166" data-name="Path 166" d="M125.676,24.831c2.425,4.823,9.462,7.353,13.942,4.639s4.428-15.5-4.243-20.821S122.091,17.82,125.676,24.831Z" transform="translate(878.493 736.38)" fill="#045584"/>
      <path id="Path_167" data-name="Path 167" d="M123.044,21.259c.606-6.246-4.691-13.178-10.753-13.178s-14.1,12.414-8.935,23.061S122.122,30.378,123.044,21.259Z" transform="translate(1010.105 729.989)" fill="#045584"/>
      <path id="Path_168" data-name="Path 168" d="M94.107,22.668a9.014,9.014,0,0,0,1.344-12.282C92.42,7.2,81.9,9.49,79.084,17.581S88.967,26.858,94.107,22.668Z" transform="translate(1151.398 737.964)" fill="#f7be3b"/>
      <path id="Path_169" data-name="Path 169" d="M75.891,20.322c2.82-6.747-11.359-12.624-19.74-6.246S68.7,37.48,75.891,20.322Z" transform="translate(1293.639 729.081)" fill="#f7be3b"/>
      <path id="Path_170" data-name="Path 170" d="M58.074,25.852c3.953-5.06,3.084-13.863-2.056-17.289s-18.9,3.084-20.188,15.075S52.355,33.311,58.074,25.852Z" transform="translate(1487.616 734.516)" fill="#e983a8"/>
      <path id="Path_171" data-name="Path 171" d="M19.308,25.694c2.135,2.846,12.255,4.27,16.841-6.958S26.5,2.132,19.967,8.378,14.881,19.764,19.308,25.694Z" transform="translate(1564.466 743.898)" fill="#f7be3b"/>
    </g>
    <g id="Group_3" data-name="Group 3" transform="translate(0 40)">
      <g id="ic_format_quote_48px" transform="translate(1022 780.286)" opacity="0.51">
        <path id="Path_1" data-name="Path 1" d="M16.143,75.429H34.571L46.857,50.857V14H10V50.857H28.429Zm49.143,0H83.714L96,50.857V14H59.143V50.857H77.571Z" transform="translate(-10 -14)" fill="#fff"/>
      </g>
      <g id="ic_format_quote_48px-2" data-name="ic_format_quote_48px" transform="translate(422 1152.6) rotate(180)" opacity="0.51">
        <path id="Path_1-2" data-name="Path 1" d="M6.143,61.429H24.571L36.857,36.857V0H0V36.857H18.429Zm49.143,0H73.714L86,36.857V0H49.143V36.857H67.571Z" transform="translate(0 0)" fill="#fff"/>
      </g>
    </g>
  </g>
</svg>
